<?xml version="1.0" standalone="no"?>
<!DOCTYPE svg PUBLIC "-//W3C//DTD SVG 20010904//EN"
 "http://www.w3.org/TR/2001/REC-SVG-20010904/DTD/svg10.dtd">
<svg version="1.0" xmlns="http://www.w3.org/2000/svg"
 width="642.000000pt" height="642.000000pt" viewBox="0 0 642.000000 642.000000"
 preserveAspectRatio="xMidYMid meet">
<metadata>
Created by potrace 1.14, written by Peter Selinger 2001-2017
</metadata>
<g transform="translate(0.000000,642.000000) scale(0.100000,-0.100000)"
fill="#000000" stroke="none">
<path d="M2999 6376 c-2 -2 -41 -7 -86 -10 -46 -4 -91 -9 -100 -10 -10 -2 -43
-7 -73 -11 -44 -6 -203 -36 -312 -60 -151 -33 -494 -159 -648 -239 -646 -335
-1123 -810 -1437 -1431 -111 -220 -225 -542 -259 -733 -3 -15 -9 -46 -14 -69
-14 -59 -40 -236 -47 -318 -15 -159 -8 -570 13 -697 2 -16 6 -40 8 -55 20
-132 18 -118 45 -240 27 -122 93 -340 130 -428 5 -11 23 -56 41 -100 249 -602
721 -1141 1307 -1493 303 -182 728 -343 1053 -398 14 -2 34 -6 45 -9 11 -2 47
-7 80 -10 33 -4 62 -8 65 -10 29 -18 548 -27 705 -12 128 12 380 56 503 88
620 160 1162 489 1602 974 297 327 553 791 675 1220 26 93 53 197 59 230 2 17
12 68 20 115 35 196 40 273 41 530 0 192 -6 325 -19 400 -3 14 -7 48 -11 75
-23 183 -110 503 -194 714 -28 70 -151 320 -191 391 -472 818 -1299 1392
-2240 1554 -47 9 -113 18 -145 22 -33 3 -73 8 -90 11 -36 5 -521 13 -526 9z
m1006 -1310 c-2 -6 -13 -42 -25 -81 -12 -38 -76 -248 -142 -465 -66 -217 -135
-444 -153 -505 -18 -60 -79 -261 -135 -445 -56 -184 -140 -461 -187 -615 -46
-154 -111 -368 -144 -475 -33 -107 -62 -202 -64 -210 -2 -8 -15 -51 -28 -95
-14 -44 -62 -201 -107 -350 -45 -148 -97 -321 -116 -382 l-35 -113 -230 0
-230 0 7 23 c10 31 59 192 99 322 18 61 71 236 118 390 47 154 128 424 182
600 53 176 142 469 197 650 55 182 104 344 108 360 4 17 34 113 65 215 32 102
58 190 59 195 2 6 17 57 35 115 18 58 48 157 67 220 19 63 48 158 64 210 16
52 52 171 80 264 28 93 53 172 55 177 8 13 464 8 460 -5z m-2056 -960 c69 -69
137 -134 150 -145 l23 -20 -373 -370 -374 -369 369 -364 368 -364 -146 -144
c-81 -80 -150 -146 -154 -148 -4 -1 -239 228 -520 509 l-513 512 502 496 c276
273 509 504 518 514 8 9 17 17 19 17 2 0 61 -56 131 -124z m3184 -389 l518
-513 -515 -516 -514 -516 -152 151 -151 151 367 363 368 363 -45 47 c-24 26
-47 50 -51 53 -4 3 -151 148 -328 323 l-321 318 148 144 c81 79 150 144 153
144 3 0 238 -230 523 -512z"/>
</g>
</svg>
